<svg width="348" height="140" viewBox="0 0 348 140" fill="none" xmlns="http://www.w3.org/2000/svg">
<path d="M82.675 109.825C82.6766 109.829 82.6779 109.831 82.6789 109.833C82.6818 109.838 82.6812 109.835 82.6735 109.827L82.675 109.825ZM82.675 109.825L82.7676 109.743L82.2906 112.068L82.675 109.825ZM106.598 46.8417L106.065 47.3144L106.065 47.3149C103.683 49.4285 100.447 50.2897 97.3269 49.6452C97.3268 49.6451 97.3266 49.6451 97.3265 49.6451L96.6383 49.5035L97.1023 50.0266L97.1035 50.0279C98.1438 51.2025 98.898 52.6023 99.306 54.1172C99.7141 55.6321 99.7649 57.2208 99.4539 58.7579L99.4533 58.7607L99.3088 59.4706L99.8509 58.9904L99.853 58.9886C101.028 57.9504 102.428 57.2001 103.943 56.7963C105.458 56.3926 107.046 56.3463 108.583 56.6607L108.585 56.6613L109.273 56.8027L108.808 56.2793C108.808 56.2792 108.808 56.279 108.808 56.2789C106.691 53.8979 105.818 50.6633 106.455 47.5428L106.598 46.8417ZM106.598 46.8417L106.455 47.5407L106.598 46.8417ZM68.7441 81.1976L68.7439 81.1986C68.0785 84.4695 68.1852 87.8519 69.055 91.0774C69.9247 94.3026 71.5335 97.2824 73.7533 99.7809C73.7535 99.7811 73.7536 99.7813 73.7538 99.7815L82.4204 109.542L69.6352 106.907L69.6343 106.907C66.3617 106.234 62.9786 106.331 59.7531 107.192C56.5275 108.052 53.5482 109.653 51.0517 111.866L41.2895 120.516L43.897 107.724L43.8972 107.723C44.5628 104.454 44.4569 101.072 43.5882 97.8475C42.7195 94.6227 41.1121 91.6431 38.8937 89.1442L38.8933 89.1438L30.2208 79.38L43.0059 82.0148L43.0065 82.0149C46.278 82.6882 49.6601 82.5916 52.8849 81.7321C56.1097 80.8726 59.0887 79.2738 61.5854 77.0619L61.5859 77.0615L71.3516 68.4053L68.7441 81.1976ZM62.9635 33.3101L62.9631 33.3122C62.0929 37.6006 63.2918 42.046 66.1972 45.3229L66.1986 45.3245L69.4042 48.9338L64.6807 47.9607C64.68 47.9605 64.6793 47.9604 64.6786 47.9602C64.6784 47.9602 64.6783 47.9602 64.6781 47.9601C62.5631 47.5225 60.3758 47.5838 58.2901 48.1397L58.9341 50.5562L58.2901 48.1397C56.2039 48.6957 54.2771 49.7312 52.6633 51.1642C52.663 51.1645 52.6626 51.1648 52.6623 51.1651L49.0429 54.3729L50.009 49.632C50.0091 49.6316 50.0092 49.6311 50.0093 49.6306C50.4424 47.5154 50.375 45.3276 49.8131 43.2415C49.2512 41.1556 48.2104 39.2289 46.7739 37.6145C46.7735 37.614 46.7731 37.6136 46.7727 37.6131L43.5688 34.0058L48.2923 34.9789C48.2926 34.979 48.2929 34.979 48.2932 34.9791C50.4087 35.4171 52.5967 35.356 54.683 34.7999C56.769 34.2439 58.6957 33.2085 60.3095 31.7756C60.3099 31.7752 60.3103 31.7748 60.3108 31.7745L63.9302 28.5667L62.9635 33.3101ZM109.034 42.6128L109.034 42.6104L109.034 42.6128L109.034 42.6128ZM109.973 42.7903L109.055 42.6031L109.055 42.6146L109.973 42.7903Z" stroke="#0F0F19" stroke-opacity="0.42" strokeWidth="5"/>
<path d="M266.793 38.078C266.878 38.2557 266.997 38.415 267.143 38.5467C267.29 38.6784 267.461 38.78 267.647 38.8456C267.832 38.9112 268.029 38.9396 268.226 38.9292C268.423 38.9188 268.615 38.8697 268.793 38.7847C268.971 38.6998 269.13 38.5807 269.262 38.4342C269.393 38.2877 269.495 38.1168 269.561 37.931C269.626 37.7453 269.655 37.5484 269.644 37.3517C269.634 37.155 269.585 36.9623 269.5 36.7845C269.328 36.4256 269.021 36.1495 268.646 36.0169C268.271 35.8844 267.859 35.9063 267.5 36.0778C267.141 36.2493 266.865 36.5564 266.732 36.9315C266.599 37.3066 266.621 37.719 266.793 38.078ZM269.224 39.6871C268.626 39.973 267.939 40.0095 267.313 39.7886C266.688 39.5677 266.176 39.1074 265.89 38.5091C265.605 37.9109 265.568 37.2235 265.789 36.5983C266.01 35.9731 266.47 35.4613 267.068 35.1754C267.667 34.8895 268.354 34.853 268.979 35.0739C269.289 35.1833 269.574 35.3526 269.818 35.5721C270.062 35.7917 270.261 36.0571 270.402 36.3534C270.544 36.6496 270.626 36.9708 270.643 37.2987C270.66 37.6266 270.613 37.9547 270.504 38.2642C270.394 38.5738 270.225 38.8588 270.005 39.1029C269.786 39.3471 269.52 39.5456 269.224 39.6871Z" stroke="#0F0F19" stroke-opacity="0.42"/>
<path d="M302.511 21.1551L301.974 20.3522L304.667 19.1296L302.511 21.1551Z" stroke="#0F0F19" stroke-opacity="0.42" strokeWidth="10"/>
<path d="M338.437 87.2791L337.71 86.6427L339.995 84.7647L338.437 87.2791Z" stroke="#0F0F19" stroke-opacity="0.42" strokeWidth="10"/>
<path d="M181.903 25.6847H182.403V25.1847V23.0557V22.5557H181.903H179.065H178.565V23.0557V25.1847V25.6847H179.065H181.903ZM174.807 20.4267H174.307V20.9267V27.3138V27.8138H174.807H181.903H182.403V27.3138V26.6041V26.1041H181.903H178.145V22.1364H181.903H182.403V21.6364V20.9267V20.4267H181.903H174.807ZM182.823 20.0073V28.2331H173.887V20.0073H182.823Z" stroke="#0F0F19" stroke-opacity="0.42"/>
<path d="M176.016 23.2655V22.8462H176.435V23.2655H176.016Z" stroke="#0F0F19" stroke-opacity="0.42"/>
<path d="M176.016 25.3945V24.9751H176.435V25.3945H176.016Z" stroke="#0F0F19" stroke-opacity="0.42"/>
<mask id="path-8-inside-1_2716_370" fill="white">
<path d="M211 18.0881V3.89453H191.129V17.3784V18.0881V22.3461H189.67C189.426 20.1469 188.061 18.2825 186.161 17.3358V11.701C186.161 7.39679 182.659 3.89453 178.355 3.89453C174.051 3.89453 170.548 7.39679 170.548 11.701V17.3429C168.449 18.3904 167 20.5542 167 23.0558V30.1526C167 32.5009 168.91 34.4107 171.258 34.4107V47.8945H185.452V27.9022C185.674 27.9803 185.912 28.0236 186.161 28.0236H191.129V47.8945H192.548V28.0236C194.114 28.0236 195.387 26.7504 195.387 25.1849C195.387 23.6193 194.114 22.3461 192.548 22.3461V18.0881H211ZM192.548 5.31389H209.581V8.1526H192.548V5.31389ZM192.548 9.57195H209.581V12.4107H192.548V9.57195ZM192.548 13.83H209.581V16.6687H192.548V13.83ZM171.968 11.701C171.968 8.17885 174.833 5.31389 178.355 5.31389C181.877 5.31389 184.742 8.17885 184.742 11.701V16.8341C184.285 16.7298 183.811 16.6687 183.323 16.6687H181.097C182.845 15.7 184.032 13.8371 184.032 11.701C184.032 8.5706 181.485 6.02356 178.355 6.02356C175.224 6.02356 172.677 8.5706 172.677 11.701C172.677 13.8371 173.865 15.7 175.613 16.6687H173.387C172.899 16.6687 172.425 16.729 171.968 16.8334V11.701ZM177.645 9.92679C177.645 11.2965 178.759 12.4107 180.129 12.4107C181.235 12.4107 182.163 11.6797 182.484 10.679C182.565 11.0069 182.613 11.3483 182.613 11.701C182.613 14.0493 180.703 15.959 178.355 15.959C176.007 15.959 174.097 14.0493 174.097 11.701C174.097 9.35266 176.007 7.44292 178.355 7.44292C178.708 7.44292 179.049 7.49118 179.377 7.57208C178.376 7.89285 177.645 8.82111 177.645 9.92679ZM180.129 8.86227C180.716 8.86227 181.194 9.33989 181.194 9.92679C181.194 10.5137 180.716 10.9913 180.129 10.9913C179.542 10.9913 179.065 10.5137 179.065 9.92679C179.065 9.33989 179.542 8.86227 180.129 8.86227ZM171.258 32.9913C169.693 32.9913 168.419 31.7181 168.419 30.1526H171.258V32.9913ZM177.645 46.4752H172.677V45.0558H177.645V46.4752ZM184.032 46.4752H179.065V45.0558H184.032V46.4752ZM184.032 38.6687H182.613V40.0881H184.032V43.6365H179.065V40.0881H181.194V38.6687H179.065V35.83H177.645V38.6687H176.226V40.0881H177.645V43.6365H172.677V40.0881H174.806V38.6687H172.677V32.9913H174.097V33.701H175.516V32.9913H177.645V33.701H179.065V32.9913H181.194V33.701H182.613V32.9913H184.032V38.6687ZM188.29 23.7655V26.6042H186.161C185.77 26.6042 185.452 26.2863 185.452 25.8945V21.6365H184.032V31.5719H182.613V30.8623H181.194V31.5719H179.065V30.8623H177.645V31.5719H175.516V30.8623H174.097V31.5719H172.677V21.6365H171.258V28.7332H168.419V23.0558C168.419 20.3172 170.648 18.0881 173.387 18.0881H183.323C186.061 18.0881 188.29 20.3172 188.29 23.0558V23.7655ZM191.129 26.6042H189.71V23.7655H191.129V26.6042ZM193.968 25.1849C193.968 25.9676 193.331 26.6042 192.548 26.6042V23.7655C193.331 23.7655 193.968 24.4021 193.968 25.1849Z"/>
</mask>
<path d="M211 18.0881V3.89453H191.129V17.3784V18.0881V22.3461H189.67C189.426 20.1469 188.061 18.2825 186.161 17.3358V11.701C186.161 7.39679 182.659 3.89453 178.355 3.89453C174.051 3.89453 170.548 7.39679 170.548 11.701V17.3429C168.449 18.3904 167 20.5542 167 23.0558V30.1526C167 32.5009 168.91 34.4107 171.258 34.4107V47.8945H185.452V27.9022C185.674 27.9803 185.912 28.0236 186.161 28.0236H191.129V47.8945H192.548V28.0236C194.114 28.0236 195.387 26.7504 195.387 25.1849C195.387 23.6193 194.114 22.3461 192.548 22.3461V18.0881H211ZM192.548 5.31389H209.581V8.1526H192.548V5.31389ZM192.548 9.57195H209.581V12.4107H192.548V9.57195ZM192.548 13.83H209.581V16.6687H192.548V13.83ZM171.968 11.701C171.968 8.17885 174.833 5.31389 178.355 5.31389C181.877 5.31389 184.742 8.17885 184.742 11.701V16.8341C184.285 16.7298 183.811 16.6687 183.323 16.6687H181.097C182.845 15.7 184.032 13.8371 184.032 11.701C184.032 8.5706 181.485 6.02356 178.355 6.02356C175.224 6.02356 172.677 8.5706 172.677 11.701C172.677 13.8371 173.865 15.7 175.613 16.6687H173.387C172.899 16.6687 172.425 16.729 171.968 16.8334V11.701ZM177.645 9.92679C177.645 11.2965 178.759 12.4107 180.129 12.4107C181.235 12.4107 182.163 11.6797 182.484 10.679C182.565 11.0069 182.613 11.3483 182.613 11.701C182.613 14.0493 180.703 15.959 178.355 15.959C176.007 15.959 174.097 14.0493 174.097 11.701C174.097 9.35266 176.007 7.44292 178.355 7.44292C178.708 7.44292 179.049 7.49118 179.377 7.57208C178.376 7.89285 177.645 8.82111 177.645 9.92679ZM180.129 8.86227C180.716 8.86227 181.194 9.33989 181.194 9.92679C181.194 10.5137 180.716 10.9913 180.129 10.9913C179.542 10.9913 179.065 10.5137 179.065 9.92679C179.065 9.33989 179.542 8.86227 180.129 8.86227ZM171.258 32.9913C169.693 32.9913 168.419 31.7181 168.419 30.1526H171.258V32.9913ZM177.645 46.4752H172.677V45.0558H177.645V46.4752ZM184.032 46.4752H179.065V45.0558H184.032V46.4752ZM184.032 38.6687H182.613V40.0881H184.032V43.6365H179.065V40.0881H181.194V38.6687H179.065V35.83H177.645V38.6687H176.226V40.0881H177.645V43.6365H172.677V40.0881H174.806V38.6687H172.677V32.9913H174.097V33.701H175.516V32.9913H177.645V33.701H179.065V32.9913H181.194V33.701H182.613V32.9913H184.032V38.6687ZM188.29 23.7655V26.6042H186.161C185.77 26.6042 185.452 26.2863 185.452 25.8945V21.6365H184.032V31.5719H182.613V30.8623H181.194V31.5719H179.065V30.8623H177.645V31.5719H175.516V30.8623H174.097V31.5719H172.677V21.6365H171.258V28.7332H168.419V23.0558C168.419 20.3172 170.648 18.0881 173.387 18.0881H183.323C186.061 18.0881 188.29 20.3172 188.29 23.0558V23.7655ZM191.129 26.6042H189.71V23.7655H191.129V26.6042ZM193.968 25.1849C193.968 25.9676 193.331 26.6042 192.548 26.6042V23.7655C193.331 23.7655 193.968 24.4021 193.968 25.1849Z" stroke="#0F0F19" stroke-opacity="0.42" strokeWidth="2" mask="url(#path-8-inside-1_2716_370)"/>
</svg>
